# xmcd
#
# Track frame offsets: 
#        150
#        25518
#        43530
#        64995
#        86903
#        105175
#        123755
#        144128
#        165308
#        189803
#        211180
#        231508
#        253585
#        273730
#
# Disc length: 3879 seconds
#
# Revision: 2
# Processed by: cddbd v1.5.2PL0 Copyright (c) Steve Scherf et al.
# Submitted via: ExactAudioCopy v0.95a5
#
DISCID=b10f250e
DTITLE=BEGIN - BEGIN SINGLE daizensyuu
DYEAR=2005
DGENRE=blues
TTITLE0=????
TTITLE1=Blue Snow
TTITLE2=YOU
TTITLE3=?????
TTITLE4=?????????????
TTITLE5=??????????
TTITLE6=????
TTITLE7=OKINAWAN?SHOUT
TTITLE8=???????
TTITLE9=??????????
TTITLE10=Birthday Song
TTITLE11=?????????
TTITLE12=????
TTITLE13=?????
EXTD=
EXTT0=
EXTT1=
EXTT2=
EXTT3=
EXTT4=
EXTT5=
EXTT6=
EXTT7=
EXTT8=
EXTT9=
EXTT10=
EXTT11=
EXTT12=
EXTT13=
PLAYORDER=
